<svg width="62" height="62" viewBox="0 0 62 62" fill="none" xmlns="http://www.w3.org/2000/svg">
<path d="M33.1226 38.4402H29.2476V54.7322C27.8763 50.9763 24.2856 48.2633 20.0639 48.2633H16.0532C15.7432 48.2633 15.5107 48.5152 15.5107 48.8058V49.6196C15.5107 54.2696 19.2889 58.0477 23.7645 58.0864L29.3445 58.1058C29.4105 58.1058 29.4742 58.0921 29.5325 58.0671H33.0357C33.0978 58.092 33.1662 58.1058 33.2389 58.1058H37.2495C42.4807 58.1058 46.7432 53.9402 47.0145 48.7864C47.0339 48.4958 46.8014 48.2633 46.5301 48.2633L40.9501 48.2827C37.3669 48.3137 34.2308 50.7415 33.1226 54.0946V38.4402Z" fill="#86D72F"/>
<path d="M31.1076 3.875C26.5545 3.875 22.9895 7.78875 23.4157 12.3225L23.7645 16.0231L19.9282 14.7056C15.627 13.2137 10.9964 15.7519 9.91136 20.1694C8.84574 24.5287 11.6939 28.8687 16.1307 29.6244L19.5795 30.2056L16.7507 33.6931C13.8832 37.2194 14.6582 42.4506 18.4557 44.9887C22.1757 47.4881 27.252 46.2869 29.4801 42.3925L31.2432 39.5831L32.677 42.3925C34.9051 46.2869 39.962 47.4881 43.7014 44.9887C47.4795 42.4506 48.2739 37.2194 45.4064 33.6931L42.6164 30.2444L46.2976 29.6244C50.7151 28.8687 53.5826 24.5287 52.517 20.1694C51.432 15.7519 46.782 13.2137 42.4807 14.7056L38.6057 16.0425L38.877 12.1481C39.1289 7.69187 35.5832 3.875 31.1076 3.875Z" fill="#D3D3D3"/>
<path d="M30.9913 33.6351C35.0361 33.6351 38.315 30.3562 38.315 26.3114C38.315 22.2666 35.0361 18.9876 30.9913 18.9876C26.9465 18.9876 23.6675 22.2666 23.6675 26.3114C23.6675 30.3562 26.9465 33.6351 30.9913 33.6351Z" fill="#FFB02E"/>
</svg>
